<svg xmlns="http://www.w3.org/2000/svg" width="68.81mm" height="42.13mm" viewBox="0 0 195.05 119.42"><defs><style>.cls-1{fill:#a5c9e1;}.cls-2,.cls-3,.cls-4{fill:none;}.cls-2,.cls-3{stroke:#000;}.cls-2,.cls-4{stroke-miterlimit:10;}.cls-2{stroke-width:0.75px;}.cls-3{stroke-linejoin:round;stroke-width:0.8px;}.cls-4{stroke:#1f77b4;stroke-linecap:round;}.cls-5{fill:#1f77b4;}.cls-6,.cls-8{fill:#ff7f0e;}.cls-6,.cls-7{opacity:0.7;}</style></defs><title>fit_method</title><g id="Fit_method" data-name="Fit method"><g id="Rank-order"><path id="Shadow" class="cls-1" d="M166.69,95h-136V38.53c45.33,17.89,90.66,46.82,136,31Z"/><g id="Axes"><line class="cls-2" x1="30.69" y1="95.03" x2="173.3" y2="95.03"/><polygon points="172.41 96.34 177.28 95.03 172.41 93.72 172.41 96.34"/><line class="cls-2" x1="30.69" y1="20.71" x2="30.69" y2="95.03"/><polygon points="29.38 21.6 30.69 16.72 32 21.6 29.38 21.6"/><path d="M182.84,99.35s0,0,0,0a0,0,0,0,1,0,0,9.93,9.93,0,0,0-1.7,1.63c.4.9,1,2,1.42,2a1.31,1.31,0,0,0,.71-.38h.08l.08.19c-.35.37-.86.93-1.27.93s-.85-.73-1.5-2h-.07a10.49,10.49,0,0,0-1.08,2l-.16,0-.28-.25v-.08c.43-.68.93-1.37,1.41-2-.38-.76-.85-1.83-1.34-1.83a1.27,1.27,0,0,0-.63.25l-.14-.18a2.71,2.71,0,0,1,1.17-.63.71.71,0,0,1,.53.19,9.81,9.81,0,0,1,.91,1.5H181c.35-.48.94-1.17,1.38-1.68,0,0,0,0,.05,0a.07.07,0,0,1,.06,0Z"/><path d="M20.51,17.21l.44-.55h.13a1.32,1.32,0,0,0,1,.76c1.06,0,1.3-1,1.4-1.57a6.35,6.35,0,0,0,.08-1l-.06-.05a3.91,3.91,0,0,1-1.87.77c-1,0-1-1-1-1.64,0-.45,0-.86,0-1.36,0-.71-.05-1.15-.45-1.15a2.16,2.16,0,0,0-.71.28l-.11-.19a3.48,3.48,0,0,1,1.38-.66.62.62,0,0,1,.63.69c0,.56,0,1.13,0,1.71,0,.92.12,1.22.27,1.42a.78.78,0,0,0,.63.26,2.92,2.92,0,0,0,1.33-.51c0-.35,0-.71,0-1.07,0-.71,0-1.42-.08-2.11l.78-.38.12,0c-.14,2,0,4.13-.21,5.07a2.4,2.4,0,0,1-2.44,1.83,1.92,1.92,0,0,1-1.26-.51Z"/><line class="cls-3" x1="27.01" y1="34.02" x2="30.69" y2="34.02"/><line class="cls-3" x1="87.38" y1="95.03" x2="87.38" y2="98.71"/><path d="M86.77,102l0,0a0,0,0,0,1,0,.05,10,10,0,0,0-1.7,1.64c.4.89,1,1.94,1.42,1.94a1.31,1.31,0,0,0,.71-.38h.08l.08.19c-.35.38-.86.93-1.27.93s-.85-.73-1.5-2h-.07a10.81,10.81,0,0,0-1.08,2l-.16,0-.28-.25V106c.43-.69.93-1.37,1.41-2-.38-.76-.85-1.82-1.34-1.82a1.36,1.36,0,0,0-.63.24l-.14-.17a2.63,2.63,0,0,1,1.17-.64.75.75,0,0,1,.54.19,10.81,10.81,0,0,1,.9,1.5H85c.35-.48.94-1.17,1.38-1.68,0,0,0,0,.06,0a.08.08,0,0,1,.06,0Z"/><path d="M90.47,105a7.15,7.15,0,0,1,.92-.7l.38.21v.08a13.08,13.08,0,0,0-1.74,1.1c-.06,0-.15.11-.15.14s0,.08.06.12c.49.55,1.28,1.34,1.61,1.34a.92.92,0,0,0,.64-.28l.15.14c-.19.23-.6.72-1,.72-.26,0-.39-.1-.65-.36,0,0-.73-.87-1.31-1.44l-.1,0v1.6l-.58.15,0,0,.09-2.6c0-.24,0-.5,0-.77a4,4,0,0,0-.07-.94c-.07-.23-.29-.27-.71-.32v-.15l0,0,1.31-.16,0,0v3h.1Z"/><path d="M12.13,37.29l.44-.55h.13a1.31,1.31,0,0,0,1,.76c1.06,0,1.3-1,1.4-1.57a6.45,6.45,0,0,0,.08-1l-.06-.05a3.9,3.9,0,0,1-1.87.76c-1,0-1-1-1-1.63,0-.45,0-.87,0-1.36,0-.72,0-1.15-.46-1.15a2.12,2.12,0,0,0-.7.28L11,31.62A3.41,3.41,0,0,1,12.4,31a.62.62,0,0,1,.62.7c0,.55,0,1.13,0,1.7,0,.93.12,1.22.28,1.43a.78.78,0,0,0,.63.26,2.86,2.86,0,0,0,1.33-.52c0-.34,0-.7,0-1.06,0-.71,0-1.43-.08-2.11l.78-.38.12,0c-.14,2,0,4.13-.21,5.07a2.4,2.4,0,0,1-2.44,1.83,1.9,1.9,0,0,1-1.26-.51Z"/><path d="M19,35.87c0,.54.06.85.36.85a1.2,1.2,0,0,0,.75-.33l.1.07v.08a1.65,1.65,0,0,1-1.14.71c-.37,0-.66-.11-.66-.82l0-1.6c0-.37-.06-.61-.28-.61a1.59,1.59,0,0,0-.65.23l-.11-.13a2.56,2.56,0,0,1,1.15-.55c.32,0,.5.2.5.58Zm-.31-2.81a.45.45,0,0,1-.48-.42c0-.24.28-.4.53-.4a.41.41,0,0,1,.43.42A.44.44,0,0,1,18.7,33.06Z"/><path d="M23.45,34.37a5.86,5.86,0,0,1,.92-.7l.38.21V34A12.47,12.47,0,0,0,23,35.06c-.06,0-.16.11-.16.14s0,.08.07.12c.49.55,1.28,1.34,1.61,1.34a.92.92,0,0,0,.64-.28l.15.14c-.2.23-.61.72-1,.72-.25,0-.38-.1-.64-.36,0,0-.73-.87-1.31-1.44l-.11.05v1.6l-.58.15-.05-.05.09-2.6c0-.24,0-.5,0-.77a3.94,3.94,0,0,0-.08-.94c-.07-.23-.29-.27-.7-.32v-.15l0,0,1.31-.16,0,.05v3h.1Z"/></g><path id="Curve" class="cls-4" d="M30.69,38.53c45.33,17.89,90.67,46.83,136,31"/><path class="cls-5" d="M141.49,59.71l.06-.06a3.41,3.41,0,0,1,.17-1.21,1.67,1.67,0,0,1,1.52-1.06.94.94,0,0,1,.93.54l-.58.53-.12,0c0-.21-.11-.63-.57-.63s-.6.86-.6,1.87l0,.06h1.23l.05.07-.07.22-.07.06h-1.14l-.06.06v1.1c0,.93,0,1.87.1,2.68l-.78.23-.17-.1c.07-1,.13-1.92.13-2.82V60.14l-.06-.08h-1.11l0-.07,0-.22.07-.06Z"/><path class="cls-5" d="M147.13,65.87c-1-.09-1.52-1.29-1.69-2.23a14.82,14.82,0,0,1-.17-2.4,12.31,12.31,0,0,1,.19-2.28c.19-1,.64-2.09,1.67-2.26V57c-1.26.32-1.35,2.84-1.35,4.34,0,1.67.07,4.08,1.35,4.33Z"/><path class="cls-5" d="M152.5,59.72l0,0a0,0,0,0,1,0,.05,10.05,10.05,0,0,0-1.71,1.64c.41.89,1,1.94,1.43,1.94a1.28,1.28,0,0,0,.7-.38H153l.08.19c-.35.38-.85.93-1.27.93s-.84-.73-1.5-2h-.06a10.83,10.83,0,0,0-1.09,2l-.15,0-.28-.24v-.08a23.38,23.38,0,0,1,1.41-2c-.38-.76-.86-1.82-1.34-1.82a1.31,1.31,0,0,0-.64.25l-.14-.18a2.69,2.69,0,0,1,1.17-.64.75.75,0,0,1,.54.19,9.91,9.91,0,0,1,.9,1.5h.06c.36-.48.94-1.17,1.38-1.68,0,0,0,0,.06,0a.07.07,0,0,1,.06,0Z"/><path class="cls-5" d="M155.38,62.93a8.41,8.41,0,0,1-1.46,2.43l-.4.19-.14-.11a5.28,5.28,0,0,0,.89-2.35l1-.29Z"/><path class="cls-5" d="M161.81,65.23a1.86,1.86,0,0,0,.34-.79c0-.41-.44-.5-.78-.5-.52,0-1.57.15-1.85.15a1.32,1.32,0,0,1-1.43-1.32,2.38,2.38,0,0,1,1.83-2.13v-.06c-.51-.11-1.07-.34-1.07-1A1.86,1.86,0,0,1,160.2,58v-.08a2.87,2.87,0,0,1-1.31-.28l.28-.46h.08a2.14,2.14,0,0,0,1.38.45,5.55,5.55,0,0,0,1-.11v.28c-.87.1-2,.43-2,1.52,0,.91.86,1.12,1.59,1.19v.23c-1.07,0-2.28.48-2.28,1.79a1.07,1.07,0,0,0,1.18,1.07c.55,0,1.39-.11,1.78-.11s.87.09.87.51a2.88,2.88,0,0,1-.74,1.42Z"/><path class="cls-5" d="M163.69,56.72c1.68.34,1.88,2.94,1.88,4.6s-.11,4.34-1.88,4.57v-.24a1.37,1.37,0,0,0,1-1,10.73,10.73,0,0,0,.34-3.4,12.08,12.08,0,0,0-.19-2.33c-.15-.75-.38-1.68-1.18-2Z"/><g id="Points"><circle class="cls-6" cx="45.08" cy="39.72" r="1.6"/><circle class="cls-6" cx="45.08" cy="43.51" r="1.6"/><circle class="cls-6" cx="45.08" cy="47.72" r="1.6"/><circle class="cls-6" cx="45.08" cy="48.99" r="1.6"/><circle class="cls-6" cx="64.78" cy="54.85" r="1.6"/><circle class="cls-6" cx="64.78" cy="62.36" r="1.6"/><circle class="cls-6" cx="64.78" cy="44.61" r="1.6"/><circle class="cls-6" cx="64.78" cy="43.51" r="1.6"/><g class="cls-7"><circle class="cls-8" cx="87.38" cy="34.02" r="1.6"/></g><g class="cls-7"><circle class="cls-8" cx="87.38" cy="75.23" r="1.6"/></g><g class="cls-7"><circle class="cls-8" cx="87.38" cy="70.54" r="1.6"/></g><g class="cls-7"><circle class="cls-8" cx="87.38" cy="56.17" r="1.6"/></g><circle class="cls-6" cx="120.14" cy="67.6" r="1.6"/><circle class="cls-6" cx="120.14" cy="73.93" r="1.6"/><circle class="cls-6" cx="120.14" cy="69.97" r="1.6"/><circle class="cls-6" cx="120.14" cy="61.34" r="1.6"/><circle class="cls-6" cx="137.13" cy="74.12" r="1.6"/><circle class="cls-6" cx="137.13" cy="70.19" r="1.6"/><circle class="cls-6" cx="137.13" cy="68.1" r="1.6"/><circle class="cls-6" cx="137.13" cy="81.38" r="1.6"/></g><g id="Residual"><line class="cls-2" x1="87.38" y1="94.65" x2="87.38" y2="66.61"/><rect x="84.95" y="94.28" width="4.88" height="0.75"/><polygon points="88.69 67.5 87.38 62.62 86.08 67.5 88.69 67.5"/><path d="M91.6,81l.06-.06a3.41,3.41,0,0,1,.17-1.21,1.65,1.65,0,0,1,1.52-1.06.93.93,0,0,1,.92.53l-.57.54-.12,0c0-.21-.11-.64-.57-.64s-.6.87-.6,1.88l0,.06h1.23l0,.07-.07.22-.07.06H92.45l-.06.06v1.1c0,.93,0,1.87.1,2.67l-.78.24-.17-.11c.07-1,.13-1.91.13-2.81V81.46l-.06-.07H90.5l0-.07,0-.22.06-.06Z"/><path d="M97.24,87.2c-1-.09-1.52-1.29-1.69-2.23a13.86,13.86,0,0,1-.18-2.4,11.68,11.68,0,0,1,.2-2.29c.19-1,.64-2.08,1.67-2.26v.27c-1.26.32-1.35,2.84-1.35,4.33,0,1.68.07,4.09,1.35,4.34Z"/><path d="M102.6,81.05s0,0,0,0a0,0,0,0,1,0,0,9.93,9.93,0,0,0-1.7,1.63c.41.9,1,2,1.43,2a1.32,1.32,0,0,0,.7-.38h.08l.08.19c-.35.38-.85.93-1.27.93s-.84-.73-1.5-2h-.07a11.09,11.09,0,0,0-1.08,2l-.16,0-.27-.25v-.08c.42-.68.92-1.36,1.4-2-.37-.76-.85-1.82-1.33-1.82a1.29,1.29,0,0,0-.64.24l-.14-.17a2.63,2.63,0,0,1,1.17-.64.75.75,0,0,1,.54.19,9.91,9.91,0,0,1,.9,1.5h.06c.36-.48.94-1.17,1.38-1.68,0,0,0,0,.06,0a.07.07,0,0,1,.06,0Z"/><path d="M106.31,84.12a5.86,5.86,0,0,1,.92-.7l.37.21v.08a13.76,13.76,0,0,0-1.74,1.1s-.15.1-.15.14.05.08.07.12c.48.55,1.27,1.34,1.61,1.34a.89.89,0,0,0,.63-.29l.16.15c-.2.23-.61.72-1,.72-.25,0-.38-.1-.64-.36,0,0-.74-.87-1.32-1.44l-.1,0v1.6l-.58.15,0,0,.09-2.61c0-.23,0-.5,0-.76a4,4,0,0,0-.07-.94c-.07-.23-.29-.27-.7-.32v-.15l0,0,1.32-.17,0,.06v3h.11Z"/><path d="M110.94,84.26a8.64,8.64,0,0,1-1.46,2.43l-.41.19-.14-.11a5.08,5.08,0,0,0,.89-2.35c.53-.15.71-.21,1-.3Z"/><path d="M117.37,86.55a1.83,1.83,0,0,0,.34-.78c0-.42-.45-.51-.79-.51-.51,0-1.57.16-1.84.16a1.32,1.32,0,0,1-1.44-1.33A2.38,2.38,0,0,1,115.47,82v-.06c-.5-.11-1.07-.35-1.07-1a1.89,1.89,0,0,1,1.35-1.6v-.08a3,3,0,0,1-1.31-.27l.28-.46h.08a2.17,2.17,0,0,0,1.39.45,5.44,5.44,0,0,0,1-.11v.27c-.86.1-2,.44-2,1.53,0,.9.85,1.11,1.58,1.19V82c-1.07,0-2.28.48-2.28,1.79a1.08,1.08,0,0,0,1.18,1.07c.56,0,1.39-.11,1.79-.11s.86.09.86.5a2.93,2.93,0,0,1-.73,1.43Z"/><path d="M119.24,78c1.68.35,1.89,2.95,1.89,4.61S121,87,119.24,87.22V87a1.36,1.36,0,0,0,1-1,10.73,10.73,0,0,0,.34-3.4,12.25,12.25,0,0,0-.19-2.34c-.15-.74-.37-1.67-1.18-2Z"/><line class="cls-2" x1="87.38" y1="62.25" x2="87.38" y2="38.01"/><rect x="84.95" y="61.87" width="4.88" height="0.75"/><polygon points="88.69 38.9 87.38 34.02 86.08 38.9 88.69 38.9"/><path d="M93.55,47.42c0-.27-.2-.57-.53-.57a.89.89,0,0,0-.76.61,6.39,6.39,0,0,0-.07,1.69c0,.5,0,1,0,1.51l-.69.2-.15-.08c.06-.7.12-1.56.12-2.35s0-1.68-.43-1.68a1.89,1.89,0,0,0-.77.31l-.12-.17a2.8,2.8,0,0,1,1.34-.75c.44,0,.65.3.71.72l.1,0c.29-.28.73-.7,1.09-.7s.74.27.79.79l-.54.48Z"/><path d="M96.31,51.11c0,.54.06.85.35.85a1.15,1.15,0,0,0,.75-.33l.11.07v.08a1.69,1.69,0,0,1-1.15.71c-.37,0-.66-.1-.66-.81l.05-1.61c0-.37-.07-.61-.29-.61a1.65,1.65,0,0,0-.65.23l-.11-.13A2.56,2.56,0,0,1,95.86,49c.33,0,.51.2.51.58ZM96,48.3a.45.45,0,0,1-.47-.42c0-.24.27-.4.52-.4a.42.42,0,0,1,.44.42A.45.45,0,0,1,96,48.3Z"/><path d="M100.74,49.61a6.44,6.44,0,0,1,.92-.7l.38.21v.08a13.08,13.08,0,0,0-1.74,1.1c-.06,0-.15.11-.15.14s0,.08.06.12c.49.55,1.28,1.34,1.61,1.34a.92.92,0,0,0,.64-.28l.15.14c-.19.23-.61.72-1,.72-.26,0-.39-.09-.65-.36,0,0-.73-.86-1.31-1.44l-.1,0v1.61l-.58.14,0,0,.08-2.6c0-.24,0-.5,0-.76a4.71,4.71,0,0,0-.07-1c-.08-.23-.29-.27-.71-.32v-.15l0,0,1.31-.16,0,0v3h.1Z"/></g></g></g></svg>