<svg xmlns="http://www.w3.org/2000/svg" width="59.22mm" height="12mm" viewBox="0 0 167.87 34.02"><defs><style>.cls-1,.cls-4,.cls-5{fill:none;stroke-miterlimit:10;}.cls-1,.cls-5{stroke:#000;}.cls-1{stroke-width:0.4px;}.cls-2{fill:#afd9b3;}.cls-3{fill:#ccc;}.cls-4{stroke:#00a551;}.cls-4,.cls-5{stroke-linecap:round;stroke-width:0.25px;}</style></defs><title>images</title><g id="Q_formula" data-name="Q formula"><path d="M20,21.45a4.59,4.59,0,0,1-1.54.41c-1.15,0-1.89-1.17-2.51-2.17A2.54,2.54,0,0,1,14,19a3.62,3.62,0,0,1-.85-2.41,4,4,0,0,1,1-3.06,3.38,3.38,0,0,1,2.55-.88,2.88,2.88,0,0,1,2.12.75,3.77,3.77,0,0,1,.82,2.54,3.92,3.92,0,0,1-.19,1.55,3,3,0,0,1-.67,1.22A3.62,3.62,0,0,1,17,19.6l0,.1a9.84,9.84,0,0,0,.62,1,1.68,1.68,0,0,0,1.45.66,5.58,5.58,0,0,0,.86-.15Zm-1.27-5.27c0-1.56-.74-3.2-2.23-3.2-1.91,0-2.4,1.78-2.4,3.24a3.37,3.37,0,0,0,.84,2.4,2.14,2.14,0,0,0,1.45.69C18.21,19.31,18.71,17.56,18.71,16.18Z"/><path d="M20.86,18.27A2.55,2.55,0,0,1,22,17.73c.38,0,.47.25.5.49s.05,1.52.05,1.79a7.18,7.18,0,0,1-.1,1.41,2.72,2.72,0,0,1-1.6,1.38l-.13-.12a1.94,1.94,0,0,0,1.05-1A6.73,6.73,0,0,0,22,20c0-1.75-.07-1.84-.36-1.84a2.15,2.15,0,0,0-.62.24Zm1.73-1.71a.48.48,0,0,1-.5.47.44.44,0,0,1-.45-.44.46.46,0,0,1,.48-.42A.43.43,0,0,1,22.59,16.56Z"/><path d="M26.66,18.3a4.84,4.84,0,0,1,.92-.69l.38.21v.08A13.41,13.41,0,0,0,26.22,19c-.06.05-.15.11-.15.15s0,.08.06.11c.49.55,1.28,1.34,1.61,1.34a.88.88,0,0,0,.64-.28l.15.15c-.2.23-.61.71-1,.71-.25,0-.38-.09-.64-.35,0,0-.73-.87-1.31-1.44l-.1.05V21l-.58.14-.06-.05.09-2.6c0-.23,0-.5,0-.76a3.84,3.84,0,0,0-.08-.94c-.07-.23-.29-.28-.7-.32v-.15l0,0,1.31-.17,0,.05v3h.1Z"/><path d="M32.42,16.27l.07-.4H39l-.06.4Zm0,1.95.07-.4H39l-.06.4Z"/><path d="M44.61,12.87l-.15-.06c0-.51.09-2.15.09-3s0-1.14-.37-1.14a1.62,1.62,0,0,0-.74.35l-.17-.22a3.13,3.13,0,0,1,1.34-.71c.49,0,.65.31.71.68l.08.06a4,4,0,0,1,1.88-.72,1,1,0,0,1,.76.29,4.6,4.6,0,0,1,.2,1.83c0,1.49-.07,1.94.47,1.94a1.67,1.67,0,0,0,.8-.4h.13l.09.21a2.72,2.72,0,0,1-1.56.88c-.55,0-.71-.39-.71-.87l0-1.69c0-1-.18-1.6-.89-1.6a2.34,2.34,0,0,0-1.28.6c0,.72-.06,1.59-.06,2.31,0,.28,0,.58,0,1Z"/><path d="M52.66,11.79l-.1,0c0-.32-.17-.56-.53-.56a.62.62,0,0,0-.67.59c0,.29.32.47.9.69s.94.51.94.84c0,.76-.82,1.13-1.54,1.13a1.29,1.29,0,0,1-1.2-.61l.4-.51H51a.92.92,0,0,0,.94.83.67.67,0,0,0,.69-.55c0-.36-.42-.57-.81-.71s-1-.46-1-.93c0-.66.75-1,1.41-1,.42,0,.91.16.93.61Z"/><line class="cls-1" x1="43.22" y1="16.98" x2="54.43" y2="16.98"/><path d="M44.71,26.39l-.15-.07c0-.5.09-2.14.09-2.94s0-1.15-.37-1.15a1.57,1.57,0,0,0-.74.35l-.17-.22a3.16,3.16,0,0,1,1.34-.7c.49,0,.65.31.71.67l.08.06a4.06,4.06,0,0,1,1.88-.71,1,1,0,0,1,.76.29,4.57,4.57,0,0,1,.2,1.82c0,1.5-.07,1.95.47,1.95a1.67,1.67,0,0,0,.8-.4h.13l.08.21a2.75,2.75,0,0,1-1.55.88c-.55,0-.72-.4-.72-.87l.05-1.7c0-1-.19-1.59-.89-1.59a2.24,2.24,0,0,0-1.28.6c0,.71-.06,1.59-.06,2.31,0,.28,0,.58,0,1Z"/><path d="M53,25.33a.45.45,0,0,0-.43-.42.71.71,0,0,0-.63.45,4.91,4.91,0,0,0-.06,1.26c0,.36,0,.71,0,1.07l-.57.15-.13-.06c.05-.51.1-1.14.1-1.72s0-1.23-.35-1.23a1.71,1.71,0,0,0-.64.23l-.1-.12a2.41,2.41,0,0,1,1.11-.55.56.56,0,0,1,.59.52l.08,0a1.84,1.84,0,0,1,.9-.5.58.58,0,0,1,.65.57l-.45.35Z"/><path d="M63.91,28.87a.28.28,0,0,1-.28-.12,8.86,8.86,0,0,1-1-1c-2.52-3-3.42-6.89-3.42-10.79,0-4.17,1.05-8.72,4.37-11.74.15-.15.17-.15.31-.15s.2,0,.2.1a.09.09,0,0,1,0,.08,11.51,11.51,0,0,0-2,2.66,18.85,18.85,0,0,0-2,9.06,17.84,17.84,0,0,0,2.32,9.6,11.52,11.52,0,0,0,1.69,2.11s0,0,0,.08S64,28.87,63.91,28.87Z"/><g id="Diagonal"><rect class="cls-2" x="70.39" y="5.08" width="9.52" height="4.76"/><rect class="cls-3" x="70.39" y="9.84" width="9.52" height="19.04"/><rect class="cls-3" x="79.91" y="5.08" width="14.28" height="4.76"/><rect class="cls-2" x="79.91" y="9.84" width="14.28" height="19.03"/><line class="cls-4" x1="79.91" y1="28.87" x2="79.91" y2="5.08"/><line class="cls-4" x1="70.39" y1="9.84" x2="94.19" y2="9.84"/><line class="cls-5" x1="70.39" y1="5.08" x2="94.19" y2="5.08"/><line class="cls-5" x1="70.39" y1="28.87" x2="94.19" y2="28.87"/><line class="cls-5" x1="70.39" y1="28.87" x2="70.39" y2="5.08"/><line class="cls-5" x1="94.19" y1="28.87" x2="94.19" y2="5.08"/><path d="M63.65,17.18c-.07-.16-.07-.18-.07-.21a.54.54,0,0,1,.06-.2L68.25,5.35c0-.1.11-.27.28-.27a.28.28,0,0,1,.28.28.54.54,0,0,1-.06.2L64.15,17,68.74,28.4c.07.16.07.18.07.2a.28.28,0,0,1-.28.27c-.17,0-.24-.16-.28-.26Z"/><path d="M95.84,5.56c-.07-.16-.07-.18-.07-.2a.28.28,0,0,1,.28-.28c.17,0,.24.17.28.27l4.6,11.42A.56.56,0,0,1,101,17a.54.54,0,0,1-.06.2l-4.6,11.43c0,.1-.11.26-.28.26a.28.28,0,0,1-.28-.27.54.54,0,0,1,.06-.2L100.43,17Z"/></g><path d="M104,17.19l.07-.4h6.52l-.06.4Z"/><g id="Off-diagonal"><rect class="cls-3" x="120.55" y="5.08" width="9.52" height="4.76"/><rect class="cls-2" x="120.55" y="9.84" width="9.52" height="19.04"/><rect class="cls-2" x="130.07" y="5.08" width="14.28" height="4.76"/><rect class="cls-3" x="130.07" y="9.84" width="14.28" height="19.03"/><line class="cls-4" x1="130.07" y1="28.87" x2="130.07" y2="5.08"/><line class="cls-4" x1="120.55" y1="9.84" x2="144.35" y2="9.84"/><line class="cls-5" x1="120.55" y1="5.08" x2="144.35" y2="5.08"/><line class="cls-5" x1="120.55" y1="28.87" x2="144.35" y2="28.87"/><line class="cls-5" x1="120.55" y1="28.87" x2="120.55" y2="5.08"/><line class="cls-5" x1="144.35" y1="28.87" x2="144.35" y2="5.08"/><path d="M113.81,17.18c-.07-.16-.07-.18-.07-.21a.54.54,0,0,1,.06-.2l4.61-11.42c0-.1.1-.27.28-.27a.28.28,0,0,1,.28.28.54.54,0,0,1-.06.2L114.31,17,118.9,28.4c.07.16.07.18.07.2a.28.28,0,0,1-.28.27c-.18,0-.24-.16-.28-.26Z"/><path d="M146,5.56c-.07-.16-.07-.18-.07-.2a.28.28,0,0,1,.27-.28c.18,0,.25.17.29.27l4.59,11.42c.07.16.07.18.07.21a.54.54,0,0,1-.06.2l-4.6,11.43c0,.1-.11.26-.29.26a.28.28,0,0,1-.27-.27.54.54,0,0,1,.06-.2L150.59,17Z"/></g><path d="M151.14,28.73c-.15.14-.17.14-.31.14s-.21,0-.21-.1a.2.2,0,0,1,0-.08,11.49,11.49,0,0,0,2-2.65,19,19,0,0,0,2-9.07,17.84,17.84,0,0,0-2.32-9.6,11.76,11.76,0,0,0-1.68-2.09.17.17,0,0,1-.06-.1c0-.1.09-.1.21-.1a.28.28,0,0,1,.28.12,11,11,0,0,1,1,1c2.52,3,3.41,6.89,3.41,10.79C155.5,21.16,154.46,25.7,151.14,28.73Z"/></g></svg>