<svg id="Qrms_formula" data-name="Qrms formula" xmlns="http://www.w3.org/2000/svg" width="29.91mm" height="8mm" viewBox="0 0 84.79 22.68"><title>images</title><path d="M20,15.87a4.59,4.59,0,0,1-1.54.4c-1.15,0-1.89-1.17-2.51-2.17A2.56,2.56,0,0,1,14,13.38,3.66,3.66,0,0,1,13.15,11a4,4,0,0,1,1-3.07A3.42,3.42,0,0,1,16.71,7a2.92,2.92,0,0,1,2.12.75,3.78,3.78,0,0,1,.82,2.54,3.92,3.92,0,0,1-.19,1.55,3,3,0,0,1-.67,1.22A3.54,3.54,0,0,1,17,14l0,.1a8.92,8.92,0,0,0,.62,1,1.67,1.67,0,0,0,1.44.67,5.48,5.48,0,0,0,.87-.15Zm-1.27-5.28C18.71,9,18,7.4,16.48,7.4c-1.91,0-2.4,1.77-2.4,3.23a3.35,3.35,0,0,0,.84,2.4,2.1,2.1,0,0,0,1.45.69C18.21,13.72,18.71,12,18.71,10.59Z"/><path d="M24.42,9.83H20.85V9.72c.46-.42.92-.85,1.35-1.3a3.53,3.53,0,0,0,1.28-2.25.91.91,0,0,0-.92-1,1.92,1.92,0,0,0-1.13.46l-.16-.14A2.6,2.6,0,0,1,23,4.71a1.15,1.15,0,0,1,1.23,1.13c0,1-1.29,2.29-2.28,3.29,0,0,0,0,0,0s0,.05.1.05h2.53l0,.06Z"/><path d="M20.69,13.29a4.2,4.2,0,0,0,1.13-.3l.06,0v.75l.41-.48a.82.82,0,0,1,.6-.3.68.68,0,0,1,.34.08l-.06.87H23a.5.5,0,0,0-.48-.33.74.74,0,0,0-.65.8v1.24c0,.48,0,.5.34.52l.38,0v.21l-1,0-.9,0V16.2l.34,0c.24,0,.27-.06.27-.52V14c0-.48,0-.53-.32-.53h-.27Z"/><path d="M23.64,13.29a4.2,4.2,0,0,0,1.13-.3l.06,0v.62l.5-.47a.93.93,0,0,1,.6-.18,1,1,0,0,1,1,.68l.55-.5a1,1,0,0,1,.6-.18,1.05,1.05,0,0,1,1.09,1.17v1.49c0,.46,0,.51.26.52l.34,0v.21l-.64,0-.57,0V14.35c0-.55-.27-.92-.66-.92s-.92.36-.92.69v1.53c0,.46,0,.51.27.52l.34,0v.21l-.91,0-.91,0V16.2l.34,0c.24,0,.27-.06.27-.52v-1.3c0-.55-.27-.92-.66-.92s-.92.36-.92.69v1.53c0,.46,0,.51.27.52l.31,0v.21l-.87,0-.92,0V16.2l.34,0c.24,0,.26-.06.26-.52V14c0-.48,0-.53-.32-.53h-.26Z"/><path d="M30.42,15.36v.29c0,.36.38.62.9.62s.88-.28.88-.67-.14-.43-.46-.5a6.2,6.2,0,0,1-1.07-.31.76.76,0,0,1-.5-.75c0-.65.52-1,1.36-1a2.71,2.71,0,0,1,.94.18c0,.23,0,.4,0,.82h-.2v-.16c0-.34-.37-.6-.85-.6s-.7.2-.7.57.2.48.79.59a2,2,0,0,1,1.07.39.77.77,0,0,1,.2.54c0,.71-.68,1.22-1.63,1.22a2.85,2.85,0,0,1-1-.18,4.29,4.29,0,0,0,.08-1Z"/><path d="M36.72,10.68l.07-.4h6.56l-.06.4Zm0,2,.07-.39h6.56l-.06.39Z"/><path d="M47.47,11.58a.48.48,0,0,1-.06-.19.42.42,0,0,1,.06-.18l2.45-5.56c.06-.13.09-.21.22-.21a.19.19,0,0,1,.19.2.55.55,0,0,1,0,.19l-2.45,5.56L50.28,17a.55.55,0,0,1,0,.19.19.19,0,0,1-.19.2c-.12,0-.15-.06-.22-.22Z"/><path d="M58.79,15.87a4.53,4.53,0,0,1-1.53.4c-1.15,0-1.9-1.17-2.51-2.17a2.59,2.59,0,0,1-1.94-.72A3.7,3.7,0,0,1,52,11,4.08,4.08,0,0,1,53,7.9,3.45,3.45,0,0,1,55.53,7a2.9,2.9,0,0,1,2.11.75,3.74,3.74,0,0,1,.83,2.54,3.92,3.92,0,0,1-.19,1.55,2.9,2.9,0,0,1-.68,1.22,3.51,3.51,0,0,1-1.76.93l0,.1a10.52,10.52,0,0,0,.61,1,1.69,1.69,0,0,0,1.45.67,5.48,5.48,0,0,0,.87-.15Zm-1.27-5.28c0-1.56-.73-3.19-2.23-3.19-1.9,0-2.4,1.77-2.4,3.23a3.36,3.36,0,0,0,.85,2.4,2.08,2.08,0,0,0,1.44.69C57,13.72,57.52,12,57.52,10.59Z"/><path d="M63.24,9.83H59.67V9.72c.46-.42.92-.85,1.35-1.3A3.53,3.53,0,0,0,62.3,6.17a.91.91,0,0,0-.92-1,1.92,1.92,0,0,0-1.13.46l-.16-.14a2.6,2.6,0,0,1,1.73-.82,1.15,1.15,0,0,1,1.23,1.13c0,1-1.3,2.29-2.28,3.29,0,0,0,0,0,0s.06.05.11.05h2.53l0,.06Z"/><path d="M59.68,13.6a2.52,2.52,0,0,1,1.15-.54.45.45,0,0,1,.5.48c.06.31.06,1.52.06,1.79a8,8,0,0,1-.1,1.41,2.68,2.68,0,0,1-1.6,1.38L59.56,18a2,2,0,0,0,1-1,7.33,7.33,0,0,0,.16-1.67c0-1.75-.07-1.84-.36-1.84a2,2,0,0,0-.62.24Zm1.73-1.71a.48.48,0,0,1-.5.46.43.43,0,0,1-.45-.43.46.46,0,0,1,.48-.42A.43.43,0,0,1,61.41,11.89Z"/><path d="M65.48,13.63a5.86,5.86,0,0,1,.92-.7l.38.21v.08A12.47,12.47,0,0,0,65,14.32c-.06,0-.16.1-.16.14s.05.08.07.12c.48.55,1.27,1.34,1.61,1.34a.94.94,0,0,0,.64-.28l.15.14c-.2.23-.61.72-1,.72-.25,0-.38-.1-.64-.36,0,0-.74-.87-1.32-1.44l-.1.05v1.6l-.58.15-.05-.05.09-2.6c0-.24,0-.51,0-.77a4,4,0,0,0-.07-.94c-.07-.23-.29-.27-.7-.32v-.15l0,0,1.32-.16,0,0v3h.11Z"/><path d="M68.78,5.83a.48.48,0,0,1-.06-.19.2.2,0,0,1,.2-.2c.11,0,.14.06.21.22l2.45,5.55a.42.42,0,0,1,.06.18.48.48,0,0,1-.06.19l-2.45,5.56c-.06.13-.09.21-.21.21a.2.2,0,0,1-.2-.2.48.48,0,0,1,.06-.19l2.45-5.57Z"/></svg>